<svg width="335" height="70" viewBox="0 0 335 70" fill="none" xmlns="http://www.w3.org/2000/svg">
<rect width="335" height="70" rx="10" fill="#F8F8F8"/>
<path d="M13.8807 38V30.7273H16.3381C16.9063 30.7273 17.3726 30.8243 17.7372 31.0185C18.1018 31.2102 18.3717 31.4742 18.5469 31.8104C18.7221 32.1465 18.8097 32.5289 18.8097 32.9574C18.8097 33.3859 18.7221 33.7659 18.5469 34.0973C18.3717 34.4287 18.103 34.6892 17.7408 34.8786C17.3786 35.0656 16.9157 35.1591 16.3523 35.1591H14.3636V34.3636H16.3239C16.7121 34.3636 17.0246 34.3068 17.2614 34.1932C17.5005 34.0795 17.6733 33.9186 17.7798 33.7102C17.8887 33.4995 17.9432 33.2486 17.9432 32.9574C17.9432 32.6662 17.8887 32.4117 17.7798 32.1939C17.6709 31.9761 17.4969 31.808 17.2578 31.6896C17.0187 31.5689 16.7027 31.5085 16.3097 31.5085H14.7614V38H13.8807ZM17.304 34.733L19.0938 38H18.071L16.3097 34.733H17.304ZM22.3919 38.1136C21.8663 38.1136 21.4129 37.9976 21.0318 37.7656C20.653 37.5312 20.3606 37.2045 20.1547 36.7855C19.9511 36.3641 19.8493 35.8741 19.8493 35.3153C19.8493 34.7566 19.9511 34.2642 20.1547 33.8381C20.3606 33.4096 20.6471 33.0758 21.014 32.8366C21.3833 32.5952 21.8142 32.4744 22.3066 32.4744C22.5907 32.4744 22.8713 32.5218 23.1483 32.6165C23.4252 32.7112 23.6774 32.8651 23.9047 33.0781C24.1319 33.2888 24.313 33.5682 24.448 33.9162C24.5829 34.2642 24.6504 34.6927 24.6504 35.2017V35.5568H20.4458V34.8324H23.7981C23.7981 34.5246 23.7366 34.25 23.6135 34.0085C23.4927 33.767 23.3199 33.5765 23.095 33.4368C22.8725 33.2971 22.6097 33.2273 22.3066 33.2273C21.9728 33.2273 21.684 33.3101 21.4402 33.4759C21.1987 33.6392 21.0128 33.8523 20.8826 34.1151C20.7524 34.3778 20.6873 34.6596 20.6873 34.9602V35.4432C20.6873 35.8551 20.7583 36.2043 20.9004 36.4908C21.0448 36.7749 21.2449 36.9915 21.5005 37.1406C21.7562 37.2874 22.0533 37.3608 22.3919 37.3608C22.612 37.3608 22.8109 37.33 22.9885 37.2685C23.1684 37.2045 23.3234 37.1098 23.4537 36.9844C23.5839 36.8565 23.6845 36.6979 23.7555 36.5085L24.5652 36.7358C24.4799 37.0104 24.3367 37.2519 24.1355 37.4602C23.9342 37.6662 23.6857 37.8272 23.3897 37.9432C23.0938 38.0568 22.7612 38.1136 22.3919 38.1136ZM27.5304 38.1278C27.1847 38.1278 26.871 38.0627 26.5893 37.9325C26.3076 37.8 26.0839 37.6094 25.9181 37.3608C25.7524 37.1098 25.6696 36.8068 25.6696 36.4517C25.6696 36.1392 25.7311 35.8859 25.8542 35.6918C25.9773 35.4953 26.1419 35.3414 26.3478 35.2301C26.5538 35.1188 26.7811 35.036 27.0297 34.9815C27.2806 34.9247 27.5327 34.8797 27.786 34.8466C28.1175 34.804 28.3862 34.772 28.5922 34.7507C28.8005 34.727 28.952 34.688 29.0467 34.6335C29.1438 34.5791 29.1923 34.4844 29.1923 34.3494V34.321C29.1923 33.9706 29.0964 33.6984 28.9047 33.5043C28.7153 33.3101 28.4276 33.2131 28.0417 33.2131C27.6416 33.2131 27.3279 33.3007 27.1007 33.4759C26.8734 33.651 26.7136 33.8381 26.6213 34.0369L25.8258 33.7528C25.9679 33.4214 26.1573 33.1634 26.394 32.9787C26.6331 32.7917 26.8935 32.6615 27.1752 32.5881C27.4593 32.5123 27.7387 32.4744 28.0133 32.4744C28.1885 32.4744 28.3897 32.4957 28.617 32.5384C28.8467 32.5786 29.068 32.6626 29.2811 32.7905C29.4965 32.9183 29.6752 33.1113 29.8173 33.3693C29.9593 33.6274 30.0304 33.973 30.0304 34.4062V38H29.1923V37.2614H29.1497C29.0929 37.3797 28.9982 37.5064 28.8656 37.6413C28.733 37.7763 28.5566 37.8911 28.3365 37.9858C28.1163 38.0805 27.8476 38.1278 27.5304 38.1278ZM27.6582 37.375C27.9896 37.375 28.269 37.3099 28.4963 37.1797C28.7259 37.0495 28.8987 36.8814 29.0147 36.6754C29.1331 36.4695 29.1923 36.2528 29.1923 36.0256V35.2585C29.1568 35.3011 29.0787 35.3402 28.9579 35.3757C28.8395 35.4089 28.7022 35.4384 28.546 35.4645C28.3921 35.4882 28.2418 35.5095 28.095 35.5284C27.9506 35.545 27.8334 35.5592 27.7434 35.571C27.5256 35.5994 27.322 35.6456 27.1326 35.7095C26.9456 35.7711 26.7941 35.8646 26.6781 35.9901C26.5645 36.1132 26.5076 36.2812 26.5076 36.4943C26.5076 36.7855 26.6154 37.0057 26.8308 37.1548C27.0486 37.3016 27.3244 37.375 27.6582 37.375ZM33.6197 38.1136C33.1651 38.1136 32.7638 37.9988 32.4158 37.7692C32.0678 37.5372 31.7956 37.2105 31.5991 36.7891C31.4026 36.3653 31.3043 35.8646 31.3043 35.2869C31.3043 34.714 31.4026 34.2169 31.5991 33.7955C31.7956 33.3741 32.069 33.0485 32.4194 32.8189C32.7698 32.5893 33.1746 32.4744 33.6339 32.4744C33.989 32.4744 34.2695 32.5336 34.4755 32.652C34.6838 32.768 34.8424 32.9006 34.9513 33.0497C35.0626 33.1965 35.149 33.3172 35.2106 33.4119H35.2816V30.7273H36.1197V38H35.31V37.1619H35.2106C35.149 37.2614 35.0614 37.3868 34.9478 37.5384C34.8342 37.6875 34.672 37.8213 34.4613 37.9396C34.2506 38.0556 33.9701 38.1136 33.6197 38.1136ZM33.7333 37.3608C34.0695 37.3608 34.3536 37.2732 34.5856 37.098C34.8176 36.9205 34.994 36.6754 35.1147 36.3629C35.2354 36.0481 35.2958 35.6847 35.2958 35.2727C35.2958 34.8655 35.2366 34.5092 35.1183 34.2038C34.9999 33.8961 34.8247 33.657 34.5927 33.4865C34.3607 33.3137 34.0742 33.2273 33.7333 33.2273C33.3782 33.2273 33.0823 33.3184 32.8455 33.5007C32.6112 33.6806 32.4348 33.9257 32.3164 34.2358C32.2004 34.5436 32.1424 34.8892 32.1424 35.2727C32.1424 35.661 32.2016 36.0137 32.32 36.331C32.4407 36.6458 32.6183 36.8968 32.8526 37.0838C33.0894 37.2685 33.3829 37.3608 33.7333 37.3608ZM38.3107 40.0455C38.1687 40.0455 38.042 40.0336 37.9308 40.0099C37.8195 39.9886 37.7425 39.9673 37.6999 39.946L37.913 39.2074C38.1166 39.2595 38.2965 39.2784 38.4528 39.2642C38.609 39.25 38.7475 39.1802 38.8683 39.0547C38.9914 38.9316 39.1038 38.7315 39.2056 38.4545L39.3619 38.0284L37.3448 32.5455H38.2539L39.7596 36.892H39.8164L41.3221 32.5455H42.2312L39.9158 38.7955C39.8117 39.0772 39.6826 39.3104 39.5288 39.495C39.3749 39.6821 39.1961 39.8205 38.9925 39.9105C38.7913 40.0005 38.564 40.0455 38.3107 40.0455ZM48.5788 32.5455V33.2557H45.6385V32.5455H48.5788ZM46.5192 38V31.7926C46.5192 31.4801 46.5926 31.2197 46.7393 31.0114C46.8861 30.803 47.0767 30.6468 47.3111 30.5426C47.5455 30.4384 47.7929 30.3864 48.0533 30.3864C48.2592 30.3864 48.4273 30.4029 48.5575 30.4361C48.6877 30.4692 48.7848 30.5 48.8487 30.5284L48.6072 31.2528C48.5646 31.2386 48.5054 31.2209 48.4297 31.1996C48.3563 31.1783 48.2592 31.1676 48.1385 31.1676C47.8615 31.1676 47.6615 31.2375 47.5384 31.3771C47.4176 31.5168 47.3572 31.7216 47.3572 31.9915V38H46.5192ZM51.7447 38.1136C51.2522 38.1136 50.8202 37.9964 50.4485 37.7621C50.0792 37.5277 49.7904 37.1998 49.582 36.7784C49.3761 36.357 49.2731 35.8646 49.2731 35.3011C49.2731 34.733 49.3761 34.237 49.582 33.8132C49.7904 33.3894 50.0792 33.0604 50.4485 32.826C50.8202 32.5916 51.2522 32.4744 51.7447 32.4744C52.2371 32.4744 52.668 32.5916 53.0373 32.826C53.409 33.0604 53.6978 33.3894 53.9038 33.8132C54.1121 34.237 54.2163 34.733 54.2163 35.3011C54.2163 35.8646 54.1121 36.357 53.9038 36.7784C53.6978 37.1998 53.409 37.5277 53.0373 37.7621C52.668 37.9964 52.2371 38.1136 51.7447 38.1136ZM51.7447 37.3608C52.1187 37.3608 52.4265 37.2649 52.668 37.0732C52.9094 36.8814 53.0882 36.6293 53.2042 36.3168C53.3202 36.0043 53.3782 35.6657 53.3782 35.3011C53.3782 34.9366 53.3202 34.5968 53.2042 34.282C53.0882 33.9671 52.9094 33.7126 52.668 33.5185C52.4265 33.3243 52.1187 33.2273 51.7447 33.2273C51.3706 33.2273 51.0629 33.3243 50.8214 33.5185C50.5799 33.7126 50.4012 33.9671 50.2852 34.282C50.1692 34.5968 50.1112 34.9366 50.1112 35.3011C50.1112 35.6657 50.1692 36.0043 50.2852 36.3168C50.4012 36.6293 50.5799 36.8814 50.8214 37.0732C51.0629 37.2649 51.3706 37.3608 51.7447 37.3608ZM55.4956 38V32.5455H56.3052V33.3693H56.362C56.4615 33.0994 56.6414 32.8804 56.9018 32.7124C57.1622 32.5443 57.4558 32.4602 57.7825 32.4602C57.844 32.4602 57.921 32.4614 58.0133 32.4638C58.1056 32.4661 58.1755 32.4697 58.2228 32.4744V33.3267C58.1944 33.3196 58.1293 33.3089 58.0275 33.2947C57.9281 33.2782 57.8227 33.2699 57.7115 33.2699C57.4463 33.2699 57.2096 33.3255 57.0012 33.4368C56.7953 33.5457 56.6319 33.6972 56.5112 33.8913C56.3928 34.0831 56.3336 34.3021 56.3336 34.5483V38H55.4956ZM64.4009 32.5455V33.2557H61.5742V32.5455H64.4009ZM62.3981 31.2386H63.2362V36.4375C63.2362 36.6742 63.2705 36.8518 63.3391 36.9702C63.4102 37.0862 63.5001 37.1643 63.609 37.2045C63.7203 37.2424 63.8375 37.2614 63.9606 37.2614C64.0529 37.2614 64.1287 37.2566 64.1879 37.2472C64.247 37.2353 64.2944 37.2259 64.3299 37.2188L64.5004 37.9716C64.4435 37.9929 64.3642 38.0142 64.2624 38.0355C64.1606 38.0592 64.0316 38.071 63.8754 38.071C63.6386 38.071 63.4066 38.0201 63.1793 37.9183C62.9544 37.8165 62.7674 37.6615 62.6183 37.4531C62.4715 37.2448 62.3981 36.982 62.3981 36.6648V31.2386ZM66.6168 34.7188V38H65.7788V30.7273H66.6168V33.3977H66.6879C66.8157 33.116 67.0075 32.8923 67.2631 32.7266C67.5212 32.5585 67.8645 32.4744 68.293 32.4744C68.6647 32.4744 68.9902 32.549 69.2695 32.6982C69.5489 32.8449 69.7655 33.071 69.9194 33.3764C70.0756 33.6795 70.1538 34.0653 70.1538 34.5341V38H69.3157V34.5909C69.3157 34.1577 69.2032 33.8227 68.9783 33.5859C68.7558 33.3468 68.4469 33.2273 68.0515 33.2273C67.7769 33.2273 67.5307 33.2853 67.3129 33.4013C67.0974 33.5173 66.927 33.6866 66.8015 33.9091C66.6784 34.1316 66.6168 34.4015 66.6168 34.7188ZM73.9739 38.1136C73.4483 38.1136 72.995 37.9976 72.6138 37.7656C72.235 37.5312 71.9426 37.2045 71.7367 36.7855C71.5331 36.3641 71.4313 35.8741 71.4313 35.3153C71.4313 34.7566 71.5331 34.2642 71.7367 33.8381C71.9426 33.4096 72.2291 33.0758 72.5961 32.8366C72.9654 32.5952 73.3962 32.4744 73.8887 32.4744C74.1728 32.4744 74.4533 32.5218 74.7303 32.6165C75.0073 32.7112 75.2594 32.8651 75.4867 33.0781C75.714 33.2888 75.8951 33.5682 76.03 33.9162C76.165 34.2642 76.2324 34.6927 76.2324 35.2017V35.5568H72.0279V34.8324H75.3801C75.3801 34.5246 75.3186 34.25 75.1955 34.0085C75.0748 33.767 74.9019 33.5765 74.677 33.4368C74.4545 33.2971 74.1917 33.2273 73.8887 33.2273C73.5549 33.2273 73.266 33.3101 73.0222 33.4759C72.7807 33.6392 72.5949 33.8523 72.4647 34.1151C72.3345 34.3778 72.2694 34.6596 72.2694 34.9602V35.4432C72.2694 35.8551 72.3404 36.2043 72.4824 36.4908C72.6268 36.7749 72.8269 36.9915 73.0826 37.1406C73.3382 37.2874 73.6354 37.3608 73.9739 37.3608C74.1941 37.3608 74.3929 37.33 74.5705 37.2685C74.7504 37.2045 74.9055 37.1098 75.0357 36.9844C75.1659 36.8565 75.2665 36.6979 75.3375 36.5085L76.1472 36.7358C76.062 37.0104 75.9187 37.2519 75.7175 37.4602C75.5163 37.6662 75.2677 37.8272 74.9718 37.9432C74.6758 38.0568 74.3432 38.1136 73.9739 38.1136ZM80.3198 38V32.5455H81.1294V33.3693H81.1863C81.2857 33.0994 81.4656 32.8804 81.726 32.7124C81.9864 32.5443 82.28 32.4602 82.6067 32.4602C82.6683 32.4602 82.7452 32.4614 82.8375 32.4638C82.9299 32.4661 82.9997 32.4697 83.0471 32.4744V33.3267C83.0186 33.3196 82.9535 33.3089 82.8517 33.2947C82.7523 33.2782 82.647 33.2699 82.5357 33.2699C82.2705 33.2699 82.0338 33.3255 81.8255 33.4368C81.6195 33.5457 81.4561 33.6972 81.3354 33.8913C81.217 34.0831 81.1578 34.3021 81.1578 34.5483V38H80.3198ZM86.1614 38.1136C85.6358 38.1136 85.1825 37.9976 84.8013 37.7656C84.4225 37.5312 84.1301 37.2045 83.9242 36.7855C83.7206 36.3641 83.6188 35.8741 83.6188 35.3153C83.6188 34.7566 83.7206 34.2642 83.9242 33.8381C84.1301 33.4096 84.4166 33.0758 84.7836 32.8366C85.1529 32.5952 85.5837 32.4744 86.0762 32.4744C86.3603 32.4744 86.6408 32.5218 86.9178 32.6165C87.1948 32.7112 87.4469 32.8651 87.6742 33.0781C87.9015 33.2888 88.0826 33.5682 88.2175 33.9162C88.3525 34.2642 88.4199 34.6927 88.4199 35.2017V35.5568H84.2154V34.8324H87.5676C87.5676 34.5246 87.5061 34.25 87.383 34.0085C87.2623 33.767 87.0894 33.5765 86.8645 33.4368C86.642 33.2971 86.3792 33.2273 86.0762 33.2273C85.7424 33.2273 85.4535 33.3101 85.2097 33.4759C84.9682 33.6392 84.7824 33.8523 84.6522 34.1151C84.522 34.3778 84.4569 34.6596 84.4569 34.9602V35.4432C84.4569 35.8551 84.5279 36.2043 84.6699 36.4908C84.8143 36.7749 85.0144 36.9915 85.2701 37.1406C85.5257 37.2874 85.8229 37.3608 86.1614 37.3608C86.3816 37.3608 86.5804 37.33 86.758 37.2685C86.9379 37.2045 87.093 37.1098 87.2232 36.9844C87.3534 36.8565 87.454 36.6979 87.525 36.5085L88.3347 36.7358C88.2495 37.0104 88.1062 37.2519 87.905 37.4602C87.7038 37.6662 87.4552 37.8272 87.1593 37.9432C86.8633 38.0568 86.5307 38.1136 86.1614 38.1136ZM93.989 32.5455L91.9719 38H91.1197L89.1026 32.5455H90.0117L91.5174 36.892H91.5742L93.0799 32.5455H93.989ZM97.1868 38.1136C96.6612 38.1136 96.2079 37.9976 95.8267 37.7656C95.4479 37.5312 95.1555 37.2045 94.9496 36.7855C94.746 36.3641 94.6442 35.8741 94.6442 35.3153C94.6442 34.7566 94.746 34.2642 94.9496 33.8381C95.1555 33.4096 95.442 33.0758 95.8089 32.8366C96.1783 32.5952 96.6091 32.4744 97.1016 32.4744C97.3857 32.4744 97.6662 32.5218 97.9432 32.6165C98.2202 32.7112 98.4723 32.8651 98.6996 33.0781C98.9268 33.2888 99.108 33.5682 99.2429 33.9162C99.3778 34.2642 99.4453 34.6927 99.4453 35.2017V35.5568H95.2408V34.8324H98.593C98.593 34.5246 98.5315 34.25 98.4084 34.0085C98.2876 33.767 98.1148 33.5765 97.8899 33.4368C97.6674 33.2971 97.4046 33.2273 97.1016 33.2273C96.7678 33.2273 96.4789 33.3101 96.2351 33.4759C95.9936 33.6392 95.8078 33.8523 95.6776 34.1151C95.5473 34.3778 95.4822 34.6596 95.4822 34.9602V35.4432C95.4822 35.8551 95.5533 36.2043 95.6953 36.4908C95.8397 36.7749 96.0398 36.9915 96.2955 37.1406C96.5511 37.2874 96.8482 37.3608 97.1868 37.3608C97.407 37.3608 97.6058 37.33 97.7834 37.2685C97.9633 37.2045 98.1184 37.1098 98.2486 36.9844C98.3788 36.8565 98.4794 36.6979 98.5504 36.5085L99.3601 36.7358C99.2749 37.0104 99.1316 37.2519 98.9304 37.4602C98.7292 37.6662 98.4806 37.8272 98.1847 37.9432C97.8887 38.0568 97.5561 38.1136 97.1868 38.1136ZM102.325 38.1278C101.98 38.1278 101.666 38.0627 101.384 37.9325C101.103 37.8 100.879 37.6094 100.713 37.3608C100.547 37.1098 100.464 36.8068 100.464 36.4517C100.464 36.1392 100.526 35.8859 100.649 35.6918C100.772 35.4953 100.937 35.3414 101.143 35.2301C101.349 35.1188 101.576 35.036 101.825 34.9815C102.076 34.9247 102.328 34.8797 102.581 34.8466C102.912 34.804 103.181 34.772 103.387 34.7507C103.595 34.727 103.747 34.688 103.842 34.6335C103.939 34.5791 103.987 34.4844 103.987 34.3494V34.321C103.987 33.9706 103.891 33.6984 103.7 33.5043C103.51 33.3101 103.223 33.2131 102.837 33.2131C102.437 33.2131 102.123 33.3007 101.896 33.4759C101.668 33.651 101.509 33.8381 101.416 34.0369L100.621 33.7528C100.763 33.4214 100.952 33.1634 101.189 32.9787C101.428 32.7917 101.688 32.6615 101.97 32.5881C102.254 32.5123 102.534 32.4744 102.808 32.4744C102.983 32.4744 103.185 32.4957 103.412 32.5384C103.642 32.5786 103.863 32.6626 104.076 32.7905C104.291 32.9183 104.47 33.1113 104.612 33.3693C104.754 33.6274 104.825 33.973 104.825 34.4062V38H103.987V37.2614H103.945C103.888 37.3797 103.793 37.5064 103.661 37.6413C103.528 37.7763 103.352 37.8911 103.131 37.9858C102.911 38.0805 102.643 38.1278 102.325 38.1278ZM102.453 37.375C102.785 37.375 103.064 37.3099 103.291 37.1797C103.521 37.0495 103.694 36.8814 103.81 36.6754C103.928 36.4695 103.987 36.2528 103.987 36.0256V35.2585C103.952 35.3011 103.874 35.3402 103.753 35.3757C103.634 35.4089 103.497 35.4384 103.341 35.4645C103.187 35.4882 103.037 35.5095 102.89 35.5284C102.746 35.545 102.628 35.5592 102.538 35.571C102.321 35.5994 102.117 35.6456 101.928 35.7095C101.741 35.7711 101.589 35.8646 101.473 35.9901C101.359 36.1132 101.303 36.2812 101.303 36.4943C101.303 36.7855 101.41 37.0057 101.626 37.1548C101.844 37.3016 102.119 37.375 102.453 37.375ZM107.193 30.7273V38H106.355V30.7273H107.193ZM112.634 35.9545V35.9119C112.639 35.4598 112.686 35.0999 112.776 34.8324C112.866 34.5649 112.994 34.3482 113.16 34.1825C113.326 34.0168 113.524 33.8641 113.756 33.7244C113.896 33.6392 114.022 33.5386 114.133 33.4226C114.244 33.3042 114.332 33.1681 114.396 33.0142C114.462 32.8603 114.495 32.6899 114.495 32.5028C114.495 32.2708 114.441 32.0696 114.332 31.8991C114.223 31.7287 114.077 31.5973 113.895 31.505C113.713 31.4126 113.51 31.3665 113.288 31.3665C113.094 31.3665 112.906 31.4067 112.727 31.4872C112.547 31.5677 112.396 31.6944 112.276 31.8672C112.155 32.04 112.085 32.2661 112.066 32.5455H111.171C111.19 32.143 111.294 31.7985 111.484 31.5121C111.675 31.2256 111.928 31.0066 112.24 30.8551C112.555 30.7036 112.904 30.6278 113.288 30.6278C113.704 30.6278 114.067 30.7107 114.374 30.8764C114.684 31.0421 114.924 31.2694 115.092 31.5582C115.262 31.8471 115.347 32.1761 115.347 32.5455C115.347 32.8059 115.307 33.0414 115.227 33.2521C115.148 33.4628 115.035 33.651 114.886 33.8168C114.739 33.9825 114.561 34.1293 114.353 34.2571C114.145 34.3873 113.978 34.5246 113.852 34.669C113.727 34.8111 113.636 34.9804 113.579 35.1768C113.522 35.3733 113.491 35.6184 113.487 35.9119V35.9545H112.634ZM113.089 38.0568C112.914 38.0568 112.763 37.9941 112.638 37.8686C112.512 37.7431 112.45 37.5928 112.45 37.4176C112.45 37.2424 112.512 37.0921 112.638 36.9666C112.763 36.8411 112.914 36.7784 113.089 36.7784C113.264 36.7784 113.414 36.8411 113.54 36.9666C113.665 37.0921 113.728 37.2424 113.728 37.4176C113.728 37.5336 113.698 37.6402 113.639 37.7372C113.582 37.8343 113.505 37.9124 113.408 37.9716C113.314 38.0284 113.207 38.0568 113.089 38.0568ZM121.779 38H119.535V30.7273H121.879C122.584 30.7273 123.188 30.8729 123.69 31.1641C124.192 31.4529 124.576 31.8684 124.844 32.4105C125.111 32.9503 125.245 33.5966 125.245 34.3494C125.245 35.107 125.11 35.7592 124.84 36.3061C124.57 36.8506 124.177 37.2696 123.661 37.5632C123.145 37.8544 122.518 38 121.779 38ZM120.416 37.2188H121.722C122.324 37.2188 122.822 37.1027 123.218 36.8707C123.613 36.6387 123.908 36.3085 124.102 35.88C124.296 35.4515 124.393 34.9413 124.393 34.3494C124.393 33.7623 124.297 33.2569 124.105 32.8331C123.914 32.407 123.627 32.0803 123.246 31.853C122.865 31.6233 122.39 31.5085 121.822 31.5085H120.416V37.2188ZM128.825 38.1136C128.332 38.1136 127.9 37.9964 127.529 37.7621C127.159 37.5277 126.87 37.1998 126.662 36.7784C126.456 36.357 126.353 35.8646 126.353 35.3011C126.353 34.733 126.456 34.237 126.662 33.8132C126.87 33.3894 127.159 33.0604 127.529 32.826C127.9 32.5916 128.332 32.4744 128.825 32.4744C129.317 32.4744 129.748 32.5916 130.117 32.826C130.489 33.0604 130.778 33.3894 130.984 33.8132C131.192 34.237 131.296 34.733 131.296 35.3011C131.296 35.8646 131.192 36.357 130.984 36.7784C130.778 37.1998 130.489 37.5277 130.117 37.7621C129.748 37.9964 129.317 38.1136 128.825 38.1136ZM128.825 37.3608C129.199 37.3608 129.507 37.2649 129.748 37.0732C129.99 36.8814 130.168 36.6293 130.284 36.3168C130.4 36.0043 130.458 35.6657 130.458 35.3011C130.458 34.9366 130.4 34.5968 130.284 34.282C130.168 33.9671 129.99 33.7126 129.748 33.5185C129.507 33.3243 129.199 33.2273 128.825 33.2273C128.451 33.2273 128.143 33.3243 127.901 33.5185C127.66 33.7126 127.481 33.9671 127.365 34.282C127.249 34.5968 127.191 34.9366 127.191 35.3011C127.191 35.6657 127.249 36.0043 127.365 36.3168C127.481 36.6293 127.66 36.8814 127.901 37.0732C128.143 37.2649 128.451 37.3608 128.825 37.3608ZM133.414 34.7188V38H132.576V32.5455H133.385V33.3977H133.456C133.584 33.1207 133.778 32.8982 134.039 32.7301C134.299 32.5597 134.635 32.4744 135.047 32.4744C135.417 32.4744 135.74 32.5502 136.017 32.7017C136.294 32.8509 136.509 33.0781 136.663 33.3835C136.817 33.6866 136.894 34.0701 136.894 34.5341V38H136.056V34.5909C136.056 34.1624 135.944 33.8286 135.722 33.5895C135.499 33.348 135.194 33.2273 134.806 33.2273C134.538 33.2273 134.299 33.2853 134.088 33.4013C133.88 33.5173 133.716 33.6866 133.595 33.9091C133.474 34.1316 133.414 34.4015 133.414 34.7188ZM139.15 30.7273V33.2273H138.368V30.7273H139.15ZM143.014 32.5455V33.2557H140.188V32.5455H143.014ZM141.011 31.2386H141.849V36.4375C141.849 36.6742 141.884 36.8518 141.952 36.9702C142.023 37.0862 142.113 37.1643 142.222 37.2045C142.334 37.2424 142.451 37.2614 142.574 37.2614C142.666 37.2614 142.742 37.2566 142.801 37.2472C142.86 37.2353 142.908 37.2259 142.943 37.2188L143.114 37.9716C143.057 37.9929 142.978 38.0142 142.876 38.0355C142.774 38.0592 142.645 38.071 142.489 38.071C142.252 38.071 142.02 38.0201 141.793 37.9183C141.568 37.8165 141.381 37.6615 141.232 37.4531C141.085 37.2448 141.011 36.982 141.011 36.6648V31.2386ZM147.087 38V32.5455H147.897V33.3977H147.968C148.082 33.1065 148.265 32.8804 148.518 32.7195C148.772 32.5561 149.076 32.4744 149.431 32.4744C149.791 32.4744 150.09 32.5561 150.33 32.7195C150.571 32.8804 150.759 33.1065 150.894 33.3977H150.951C151.091 33.116 151.3 32.8923 151.58 32.7266C151.859 32.5585 152.194 32.4744 152.585 32.4744C153.072 32.4744 153.471 32.6271 153.781 32.9325C154.091 33.2356 154.246 33.7079 154.246 34.3494V38H153.408V34.3494C153.408 33.947 153.298 33.6593 153.078 33.4865C152.858 33.3137 152.599 33.2273 152.3 33.2273C151.917 33.2273 151.62 33.3433 151.409 33.5753C151.198 33.8049 151.093 34.0961 151.093 34.4489V38H150.241V34.2642C150.241 33.9541 150.14 33.7043 149.939 33.5149C149.738 33.3232 149.478 33.2273 149.161 33.2273C148.943 33.2273 148.74 33.2853 148.55 33.4013C148.363 33.5173 148.212 33.6783 148.096 33.8842C147.982 34.0878 147.925 34.3234 147.925 34.5909V38H147.087ZM155.779 38V32.5455H156.617V38H155.779ZM156.205 31.6364C156.042 31.6364 155.901 31.5807 155.782 31.4695C155.666 31.3582 155.608 31.2244 155.608 31.0682C155.608 30.9119 155.666 30.7782 155.782 30.6669C155.901 30.5556 156.042 30.5 156.205 30.5C156.368 30.5 156.508 30.5556 156.624 30.6669C156.742 30.7782 156.801 30.9119 156.801 31.0682C156.801 31.2244 156.742 31.3582 156.624 31.4695C156.508 31.5807 156.368 31.6364 156.205 31.6364ZM162.015 33.767L161.263 33.9801C161.215 33.8546 161.145 33.7327 161.053 33.6143C160.963 33.4936 160.84 33.3942 160.684 33.3161C160.528 33.2379 160.327 33.1989 160.084 33.1989C159.75 33.1989 159.472 33.2758 159.249 33.4297C159.029 33.5812 158.919 33.7741 158.919 34.0085C158.919 34.2169 158.995 34.3814 159.146 34.5021C159.298 34.6229 159.534 34.7235 159.856 34.804L160.666 35.0028C161.154 35.1212 161.517 35.3023 161.756 35.5462C161.995 35.7876 162.115 36.099 162.115 36.4801C162.115 36.7926 162.025 37.072 161.845 37.3182C161.667 37.5644 161.419 37.7585 161.099 37.9006C160.78 38.0426 160.408 38.1136 159.984 38.1136C159.428 38.1136 158.967 37.9929 158.603 37.7514C158.238 37.5099 158.007 37.1572 157.91 36.6932L158.706 36.4943C158.782 36.7879 158.925 37.008 159.135 37.1548C159.349 37.3016 159.627 37.375 159.97 37.375C160.361 37.375 160.671 37.2921 160.9 37.1264C161.132 36.9583 161.248 36.7571 161.248 36.5227C161.248 36.3333 161.182 36.1747 161.05 36.0469C160.917 35.9167 160.713 35.8196 160.439 35.7557L159.53 35.5426C159.03 35.4242 158.663 35.2408 158.429 34.9922C158.197 34.7412 158.081 34.4276 158.081 34.0511C158.081 33.7434 158.167 33.4711 158.34 33.2344C158.515 32.9976 158.753 32.8118 159.054 32.6768C159.357 32.5419 159.7 32.4744 160.084 32.4744C160.623 32.4744 161.047 32.5928 161.355 32.8295C161.665 33.0663 161.885 33.3788 162.015 33.767ZM167.24 33.767L166.487 33.9801C166.44 33.8546 166.37 33.7327 166.278 33.6143C166.188 33.4936 166.065 33.3942 165.908 33.3161C165.752 33.2379 165.552 33.1989 165.308 33.1989C164.974 33.1989 164.696 33.2758 164.474 33.4297C164.254 33.5812 164.143 33.7741 164.143 34.0085C164.143 34.2169 164.219 34.3814 164.371 34.5021C164.522 34.6229 164.759 34.7235 165.081 34.804L165.891 35.0028C166.378 35.1212 166.742 35.3023 166.981 35.5462C167.22 35.7876 167.339 36.099 167.339 36.4801C167.339 36.7926 167.25 37.072 167.07 37.3182C166.892 37.5644 166.643 37.7585 166.324 37.9006C166.004 38.0426 165.633 38.1136 165.209 38.1136C164.652 38.1136 164.192 37.9929 163.827 37.7514C163.463 37.5099 163.232 37.1572 163.135 36.6932L163.93 36.4943C164.006 36.7879 164.149 37.008 164.36 37.1548C164.573 37.3016 164.851 37.375 165.195 37.375C165.585 37.375 165.895 37.2921 166.125 37.1264C166.357 36.9583 166.473 36.7571 166.473 36.5227C166.473 36.3333 166.407 36.1747 166.274 36.0469C166.142 35.9167 165.938 35.8196 165.663 35.7557L164.754 35.5426C164.255 35.4242 163.888 35.2408 163.653 34.9922C163.421 34.7412 163.305 34.4276 163.305 34.0511C163.305 33.7434 163.392 33.4711 163.565 33.2344C163.74 32.9976 163.978 32.8118 164.278 32.6768C164.581 32.5419 164.925 32.4744 165.308 32.4744C165.848 32.4744 166.272 32.5928 166.58 32.8295C166.89 33.0663 167.11 33.3788 167.24 33.767ZM173.629 38.1136C173.137 38.1136 172.705 37.9964 172.333 37.7621C171.964 37.5277 171.675 37.1998 171.467 36.7784C171.261 36.357 171.158 35.8646 171.158 35.3011C171.158 34.733 171.261 34.237 171.467 33.8132C171.675 33.3894 171.964 33.0604 172.333 32.826C172.705 32.5916 173.137 32.4744 173.629 32.4744C174.122 32.4744 174.553 32.5916 174.922 32.826C175.294 33.0604 175.583 33.3894 175.789 33.8132C175.997 34.237 176.101 34.733 176.101 35.3011C176.101 35.8646 175.997 36.357 175.789 36.7784C175.583 37.1998 175.294 37.5277 174.922 37.7621C174.553 37.9964 174.122 38.1136 173.629 38.1136ZM173.629 37.3608C174.003 37.3608 174.311 37.2649 174.553 37.0732C174.794 36.8814 174.973 36.6293 175.089 36.3168C175.205 36.0043 175.263 35.6657 175.263 35.3011C175.263 34.9366 175.205 34.5968 175.089 34.282C174.973 33.9671 174.794 33.7126 174.553 33.5185C174.311 33.3243 174.003 33.2273 173.629 33.2273C173.255 33.2273 172.948 33.3243 172.706 33.5185C172.465 33.7126 172.286 33.9671 172.17 34.282C172.054 34.5968 171.996 34.9366 171.996 35.3011C171.996 35.6657 172.054 36.0043 172.17 36.3168C172.286 36.6293 172.465 36.8814 172.706 37.0732C172.948 37.2649 173.255 37.3608 173.629 37.3608ZM180.818 35.7699V32.5455H181.656V38H180.818V37.0767H180.761C180.633 37.3537 180.434 37.5893 180.164 37.7834C179.895 37.9751 179.554 38.071 179.142 38.071C178.801 38.071 178.498 37.9964 178.233 37.8473C177.967 37.6958 177.759 37.4685 177.608 37.1655C177.456 36.8601 177.38 36.4754 177.38 36.0114V32.5455H178.218V35.9545C178.218 36.3523 178.33 36.6695 178.552 36.9062C178.777 37.143 179.064 37.2614 179.412 37.2614C179.62 37.2614 179.832 37.2081 180.047 37.1016C180.265 36.995 180.447 36.8317 180.594 36.6115C180.743 36.3913 180.818 36.1108 180.818 35.7699ZM185.563 32.5455V33.2557H182.736V32.5455H185.563ZM183.56 31.2386H184.398V36.4375C184.398 36.6742 184.433 36.8518 184.501 36.9702C184.572 37.0862 184.662 37.1643 184.771 37.2045C184.882 37.2424 185 37.2614 185.123 37.2614C185.215 37.2614 185.291 37.2566 185.35 37.2472C185.409 37.2353 185.456 37.2259 185.492 37.2188L185.662 37.9716C185.606 37.9929 185.526 38.0142 185.425 38.0355C185.323 38.0592 185.194 38.071 185.037 38.071C184.801 38.071 184.569 38.0201 184.341 37.9183C184.117 37.8165 183.93 37.6615 183.78 37.4531C183.634 37.2448 183.56 36.982 183.56 36.6648V31.2386ZM187.932 30.7273L187.861 35.9545H187.037L186.966 30.7273H187.932ZM187.449 38.0568C187.273 38.0568 187.123 37.9941 186.998 37.8686C186.872 37.7431 186.809 37.5928 186.809 37.4176C186.809 37.2424 186.872 37.0921 186.998 36.9666C187.123 36.8411 187.273 36.7784 187.449 36.7784C187.624 36.7784 187.774 36.8411 187.9 36.9666C188.025 37.0921 188.088 37.2424 188.088 37.4176C188.088 37.5336 188.058 37.6402 187.999 37.7372C187.942 37.8343 187.865 37.9124 187.768 37.9716C187.674 38.0284 187.567 38.0568 187.449 38.0568ZM198.385 33H197.505C197.453 32.7467 197.361 32.5241 197.231 32.3324C197.103 32.1406 196.947 31.9796 196.762 31.8494C196.58 31.7169 196.378 31.6174 196.155 31.5511C195.933 31.4848 195.701 31.4517 195.459 31.4517C195.019 31.4517 194.62 31.563 194.262 31.7855C193.907 32.008 193.624 32.3359 193.414 32.7692C193.205 33.2024 193.101 33.7339 193.101 34.3636C193.101 34.9934 193.205 35.5249 193.414 35.9581C193.624 36.3913 193.907 36.7192 194.262 36.9418C194.62 37.1643 195.019 37.2756 195.459 37.2756C195.701 37.2756 195.933 37.2424 196.155 37.1761C196.378 37.1098 196.58 37.0116 196.762 36.8814C196.947 36.7488 197.103 36.5866 197.231 36.3949C197.361 36.2008 197.453 35.9782 197.505 35.7273H198.385C198.319 36.099 198.198 36.4316 198.023 36.7251C197.848 37.0187 197.63 37.2685 197.37 37.4744C197.109 37.678 196.817 37.8331 196.493 37.9396C196.171 38.0462 195.826 38.0994 195.459 38.0994C194.839 38.0994 194.287 37.9479 193.804 37.6449C193.321 37.3419 192.941 36.911 192.664 36.3523C192.387 35.7936 192.249 35.1307 192.249 34.3636C192.249 33.5966 192.387 32.9337 192.664 32.375C192.941 31.8163 193.321 31.3854 193.804 31.0824C194.287 30.7794 194.839 30.6278 195.459 30.6278C195.826 30.6278 196.171 30.6811 196.493 30.7876C196.817 30.8942 197.109 31.0504 197.37 31.2564C197.63 31.46 197.848 31.7086 198.023 32.0021C198.198 32.2933 198.319 32.6259 198.385 33ZM200.533 30.7273V38H199.695V30.7273H200.533ZM202.068 38V32.5455H202.906V38H202.068ZM202.494 31.6364C202.331 31.6364 202.19 31.5807 202.071 31.4695C201.955 31.3582 201.897 31.2244 201.897 31.0682C201.897 30.9119 201.955 30.7782 202.071 30.6669C202.19 30.5556 202.331 30.5 202.494 30.5C202.657 30.5 202.797 30.5556 202.913 30.6669C203.031 30.7782 203.091 30.9119 203.091 31.0682C203.091 31.2244 203.031 31.3582 202.913 31.4695C202.797 31.5807 202.657 31.6364 202.494 31.6364ZM206.657 38.1136C206.145 38.1136 205.705 37.9929 205.336 37.7514C204.966 37.5099 204.682 37.1773 204.483 36.7536C204.285 36.3298 204.185 35.8456 204.185 35.3011C204.185 34.7472 204.287 34.2583 204.491 33.8345C204.697 33.4084 204.983 33.0758 205.35 32.8366C205.719 32.5952 206.15 32.4744 206.643 32.4744C207.026 32.4744 207.372 32.5455 207.68 32.6875C207.987 32.8295 208.239 33.0284 208.436 33.2841C208.632 33.5398 208.754 33.8381 208.802 34.179H207.964C207.9 33.9304 207.758 33.7102 207.537 33.5185C207.32 33.3243 207.026 33.2273 206.657 33.2273C206.33 33.2273 206.044 33.3125 205.797 33.483C205.554 33.651 205.363 33.889 205.226 34.1967C205.091 34.5021 205.023 34.8608 205.023 35.2727C205.023 35.6941 205.09 36.0611 205.222 36.3736C205.357 36.6861 205.546 36.9287 205.79 37.1016C206.037 37.2744 206.325 37.3608 206.657 37.3608C206.875 37.3608 207.072 37.3229 207.25 37.2472C207.427 37.1714 207.578 37.0625 207.701 36.9205C207.824 36.7784 207.912 36.608 207.964 36.4091H208.802C208.754 36.7311 208.637 37.0211 208.45 37.2791C208.265 37.5348 208.02 37.7384 207.715 37.8899C207.412 38.0391 207.059 38.1136 206.657 38.1136ZM210.808 36.0114L210.794 34.9744H210.964L213.351 32.5455H214.388L211.845 35.1165H211.774L210.808 36.0114ZM210.027 38V30.7273H210.865V38H210.027ZM213.493 38L211.362 35.3011L211.959 34.7188L214.558 38H213.493ZM219.117 34.7188V38H218.279V30.7273H219.117V33.3977H219.188C219.316 33.116 219.507 32.8923 219.763 32.7266C220.021 32.5585 220.364 32.4744 220.793 32.4744C221.165 32.4744 221.49 32.549 221.77 32.6982C222.049 32.8449 222.266 33.071 222.419 33.3764C222.576 33.6795 222.654 34.0653 222.654 34.5341V38H221.816V34.5909C221.816 34.1577 221.703 33.8227 221.478 33.5859C221.256 33.3468 220.947 33.2273 220.551 33.2273C220.277 33.2273 220.031 33.2853 219.813 33.4013C219.597 33.5173 219.427 33.6866 219.301 33.9091C219.178 34.1316 219.117 34.4015 219.117 34.7188ZM226.474 38.1136C225.948 38.1136 225.495 37.9976 225.114 37.7656C224.735 37.5312 224.443 37.2045 224.237 36.7855C224.033 36.3641 223.931 35.8741 223.931 35.3153C223.931 34.7566 224.033 34.2642 224.237 33.8381C224.443 33.4096 224.729 33.0758 225.096 32.8366C225.465 32.5952 225.896 32.4744 226.389 32.4744C226.673 32.4744 226.953 32.5218 227.23 32.6165C227.507 32.7112 227.759 32.8651 227.987 33.0781C228.214 33.2888 228.395 33.5682 228.53 33.9162C228.665 34.2642 228.732 34.6927 228.732 35.2017V35.5568H224.528V34.8324H227.88C227.88 34.5246 227.819 34.25 227.695 34.0085C227.575 33.767 227.402 33.5765 227.177 33.4368C226.954 33.2971 226.692 33.2273 226.389 33.2273C226.055 33.2273 225.766 33.3101 225.522 33.4759C225.281 33.6392 225.095 33.8523 224.965 34.1151C224.834 34.3778 224.769 34.6596 224.769 34.9602V35.4432C224.769 35.8551 224.84 36.2043 224.982 36.4908C225.127 36.7749 225.327 36.9915 225.583 37.1406C225.838 37.2874 226.135 37.3608 226.474 37.3608C226.694 37.3608 226.893 37.33 227.07 37.2685C227.25 37.2045 227.405 37.1098 227.536 36.9844C227.666 36.8565 227.767 36.6979 227.838 36.5085L228.647 36.7358C228.562 37.0104 228.419 37.2519 228.218 37.4602C228.016 37.6662 227.768 37.8272 227.472 37.9432C227.176 38.0568 226.843 38.1136 226.474 38.1136ZM230.007 38V32.5455H230.817V33.3693H230.874C230.973 33.0994 231.153 32.8804 231.414 32.7124C231.674 32.5443 231.968 32.4602 232.294 32.4602C232.356 32.4602 232.433 32.4614 232.525 32.4638C232.617 32.4661 232.687 32.4697 232.735 32.4744V33.3267C232.706 33.3196 232.641 33.3089 232.539 33.2947C232.44 33.2782 232.334 33.2699 232.223 33.2699C231.958 33.2699 231.721 33.3255 231.513 33.4368C231.307 33.5457 231.144 33.6972 231.023 33.8913C230.905 34.0831 230.845 34.3021 230.845 34.5483V38H230.007ZM235.849 38.1136C235.323 38.1136 234.87 37.9976 234.489 37.7656C234.11 37.5312 233.818 37.2045 233.612 36.7855C233.408 36.3641 233.306 35.8741 233.306 35.3153C233.306 34.7566 233.408 34.2642 233.612 33.8381C233.818 33.4096 234.104 33.0758 234.471 32.8366C234.84 32.5952 235.271 32.4744 235.764 32.4744C236.048 32.4744 236.328 32.5218 236.605 32.6165C236.882 32.7112 237.134 32.8651 237.362 33.0781C237.589 33.2888 237.77 33.5682 237.905 33.9162C238.04 34.2642 238.107 34.6927 238.107 35.2017V35.5568H233.903V34.8324H237.255C237.255 34.5246 237.194 34.25 237.07 34.0085C236.95 33.767 236.777 33.5765 236.552 33.4368C236.329 33.2971 236.067 33.2273 235.764 33.2273C235.43 33.2273 235.141 33.3101 234.897 33.4759C234.656 33.6392 234.47 33.8523 234.34 34.1151C234.209 34.3778 234.144 34.6596 234.144 34.9602V35.4432C234.144 35.8551 234.215 36.2043 234.357 36.4908C234.502 36.7749 234.702 36.9915 234.958 37.1406C235.213 37.2874 235.51 37.3608 235.849 37.3608C236.069 37.3608 236.268 37.33 236.445 37.2685C236.625 37.2045 236.78 37.1098 236.911 36.9844C237.041 36.8565 237.142 36.6979 237.213 36.5085L238.022 36.7358C237.937 37.0104 237.794 37.2519 237.593 37.4602C237.391 37.6662 237.143 37.8272 236.847 37.9432C236.551 38.0568 236.218 38.1136 235.849 38.1136ZM244.567 32.5455V33.2557H241.74V32.5455H244.567ZM242.564 31.2386H243.402V36.4375C243.402 36.6742 243.436 36.8518 243.505 36.9702C243.576 37.0862 243.666 37.1643 243.775 37.2045C243.886 37.2424 244.003 37.2614 244.127 37.2614C244.219 37.2614 244.295 37.2566 244.354 37.2472C244.413 37.2353 244.46 37.2259 244.496 37.2188L244.666 37.9716C244.61 37.9929 244.53 38.0142 244.428 38.0355C244.327 38.0592 244.198 38.071 244.041 38.071C243.805 38.071 243.573 38.0201 243.345 37.9183C243.12 37.8165 242.933 37.6615 242.784 37.4531C242.637 37.2448 242.564 36.982 242.564 36.6648V31.2386ZM247.985 38.1136C247.492 38.1136 247.06 37.9964 246.689 37.7621C246.319 37.5277 246.031 37.1998 245.822 36.7784C245.616 36.357 245.513 35.8646 245.513 35.3011C245.513 34.733 245.616 34.237 245.822 33.8132C246.031 33.3894 246.319 33.0604 246.689 32.826C247.06 32.5916 247.492 32.4744 247.985 32.4744C248.477 32.4744 248.908 32.5916 249.278 32.826C249.649 33.0604 249.938 33.3894 250.144 33.8132C250.352 34.237 250.456 34.733 250.456 35.3011C250.456 35.8646 250.352 36.357 250.144 36.7784C249.938 37.1998 249.649 37.5277 249.278 37.7621C248.908 37.9964 248.477 38.1136 247.985 38.1136ZM247.985 37.3608C248.359 37.3608 248.667 37.2649 248.908 37.0732C249.15 36.8814 249.328 36.6293 249.444 36.3168C249.56 36.0043 249.618 35.6657 249.618 35.3011C249.618 34.9366 249.56 34.5968 249.444 34.282C249.328 33.9671 249.15 33.7126 248.908 33.5185C248.667 33.3243 248.359 33.2273 247.985 33.2273C247.611 33.2273 247.303 33.3243 247.062 33.5185C246.82 33.7126 246.641 33.9671 246.525 34.282C246.409 34.5968 246.351 34.9366 246.351 35.3011C246.351 35.6657 246.409 36.0043 246.525 36.3168C246.641 36.6293 246.82 36.8814 247.062 37.0732C247.303 37.2649 247.611 37.3608 247.985 37.3608ZM17.2045 50.7699V47.5455H18.0426V53H17.2045V52.0767H17.1477C17.0199 52.3537 16.821 52.5893 16.5511 52.7834C16.2813 52.9751 15.9403 53.071 15.5284 53.071C15.1875 53.071 14.8845 52.9964 14.6193 52.8473C14.3542 52.6958 14.1458 52.4685 13.9943 52.1655C13.8428 51.8601 13.767 51.4754 13.767 51.0114V47.5455H14.6051V50.9545C14.6051 51.3523 14.7164 51.6695 14.9389 51.9062C15.1638 52.143 15.4503 52.2614 15.7983 52.2614C16.0066 52.2614 16.2185 52.2081 16.4339 52.1016C16.6518 51.995 16.834 51.8317 16.9808 51.6115C17.13 51.3913 17.2045 51.1108 17.2045 50.7699ZM20.4157 49.7188V53H19.5776V47.5455H20.3873V48.3977H20.4583C20.5861 48.1207 20.7802 47.8982 21.0407 47.7301C21.3011 47.5597 21.6373 47.4744 22.0492 47.4744C22.4185 47.4744 22.7417 47.5502 23.0186 47.7017C23.2956 47.8509 23.5111 48.0781 23.665 48.3835C23.8188 48.6866 23.8958 49.0701 23.8958 49.5341V53H23.0577V49.5909C23.0577 49.1624 22.9464 48.8286 22.7239 48.5895C22.5014 48.348 22.196 48.2273 21.8077 48.2273C21.5402 48.2273 21.3011 48.2853 21.0904 48.4013C20.882 48.5173 20.7175 48.6866 20.5968 48.9091C20.476 49.1316 20.4157 49.4015 20.4157 49.7188ZM29.6921 47.5455L27.6751 53H26.8228L24.8058 47.5455H25.7148L27.2205 51.892H27.2773L28.783 47.5455H29.6921ZM32.8899 53.1136C32.3643 53.1136 31.911 52.9976 31.5298 52.7656C31.151 52.5312 30.8587 52.2045 30.6527 51.7855C30.4491 51.3641 30.3473 50.8741 30.3473 50.3153C30.3473 49.7566 30.4491 49.2642 30.6527 48.8381C30.8587 48.4096 31.1451 48.0758 31.5121 47.8366C31.8814 47.5952 32.3123 47.4744 32.8047 47.4744C33.0888 47.4744 33.3693 47.5218 33.6463 47.6165C33.9233 47.7112 34.1754 47.8651 34.4027 48.0781C34.63 48.2888 34.8111 48.5682 34.946 48.9162C35.081 49.2642 35.1484 49.6927 35.1484 50.2017V50.5568H30.9439V49.8324H34.2962C34.2962 49.5246 34.2346 49.25 34.1115 49.0085C33.9908 48.767 33.8179 48.5765 33.593 48.4368C33.3705 48.2971 33.1077 48.2273 32.8047 48.2273C32.4709 48.2273 32.1821 48.3101 31.9382 48.4759C31.6967 48.6392 31.5109 48.8523 31.3807 49.1151C31.2505 49.3778 31.1854 49.6596 31.1854 49.9602V50.4432C31.1854 50.8551 31.2564 51.2043 31.3984 51.4908C31.5429 51.7749 31.7429 51.9915 31.9986 52.1406C32.2543 52.2874 32.5514 52.3608 32.8899 52.3608C33.1101 52.3608 33.3089 52.33 33.4865 52.2685C33.6664 52.2045 33.8215 52.1098 33.9517 51.9844C34.0819 51.8565 34.1825 51.6979 34.2536 51.5085L35.0632 51.7358C34.978 52.0104 34.8348 52.2519 34.6335 52.4602C34.4323 52.6662 34.1837 52.8272 33.8878 52.9432C33.5919 53.0568 33.2592 53.1136 32.8899 53.1136ZM36.4233 53V47.5455H37.2614V53H36.4233ZM36.8494 46.6364C36.6861 46.6364 36.5452 46.5807 36.4268 46.4695C36.3108 46.3582 36.2528 46.2244 36.2528 46.0682C36.2528 45.9119 36.3108 45.7782 36.4268 45.6669C36.5452 45.5556 36.6861 45.5 36.8494 45.5C37.0128 45.5 37.1525 45.5556 37.2685 45.6669C37.3868 45.7782 37.446 45.9119 37.446 46.0682C37.446 46.2244 37.3868 46.3582 37.2685 46.4695C37.1525 46.5807 37.0128 46.6364 36.8494 46.6364ZM39.6344 45.7273V53H38.7963V45.7273H39.6344ZM46.354 47.5455V48.2557H43.5273V47.5455H46.354ZM44.3512 46.2386H45.1893V51.4375C45.1893 51.6742 45.2236 51.8518 45.2923 51.9702C45.3633 52.0862 45.4532 52.1643 45.5621 52.2045C45.6734 52.2424 45.7906 52.2614 45.9137 52.2614C46.006 52.2614 46.0818 52.2566 46.141 52.2472C46.2002 52.2353 46.2475 52.2259 46.283 52.2188L46.4535 52.9716C46.3967 52.9929 46.3174 53.0142 46.2156 53.0355C46.1138 53.0592 45.9847 53.071 45.8285 53.071C45.5917 53.071 45.3597 53.0201 45.1325 52.9183C44.9076 52.8165 44.7205 52.6615 44.5714 52.4531C44.4246 52.2448 44.3512 51.982 44.3512 51.6648V46.2386ZM48.57 49.7188V53H47.7319V45.7273H48.57V48.3977H48.641C48.7688 48.116 48.9606 47.8923 49.2163 47.7266C49.4743 47.5585 49.8176 47.4744 50.2461 47.4744C50.6178 47.4744 50.9433 47.549 51.2227 47.6982C51.502 47.8449 51.7186 48.071 51.8725 48.3764C52.0288 48.6795 52.1069 49.0653 52.1069 49.5341V53H51.2688V49.5909C51.2688 49.1577 51.1564 48.8227 50.9315 48.5859C50.7089 48.3468 50.4 48.2273 50.0046 48.2273C49.73 48.2273 49.4838 48.2853 49.266 48.4013C49.0505 48.5173 48.8801 48.6866 48.7546 48.9091C48.6315 49.1316 48.57 49.4015 48.57 49.7188ZM55.927 53.1136C55.4015 53.1136 54.9481 52.9976 54.5669 52.7656C54.1882 52.5312 53.8958 52.2045 53.6898 51.7855C53.4862 51.3641 53.3844 50.8741 53.3844 50.3153C53.3844 49.7566 53.4862 49.2642 53.6898 48.8381C53.8958 48.4096 54.1822 48.0758 54.5492 47.8366C54.9185 47.5952 55.3494 47.4744 55.8418 47.4744C56.1259 47.4744 56.4064 47.5218 56.6834 47.6165C56.9604 47.7112 57.2125 47.8651 57.4398 48.0781C57.6671 48.2888 57.8482 48.5682 57.9831 48.9162C58.1181 49.2642 58.1855 49.6927 58.1855 50.2017V50.5568H53.981V49.8324H57.3333C57.3333 49.5246 57.2717 49.25 57.1486 49.0085C57.0279 48.767 56.8551 48.5765 56.6301 48.4368C56.4076 48.2971 56.1448 48.2273 55.8418 48.2273C55.508 48.2273 55.2192 48.3101 54.9753 48.4759C54.7338 48.6392 54.548 48.8523 54.4178 49.1151C54.2876 49.3778 54.2225 49.6596 54.2225 49.9602V50.4432C54.2225 50.8551 54.2935 51.2043 54.4355 51.4908C54.58 51.7749 54.78 51.9915 55.0357 52.1406C55.2914 52.2874 55.5885 52.3608 55.927 52.3608C56.1472 52.3608 56.3461 52.33 56.5236 52.2685C56.7035 52.2045 56.8586 52.1098 56.9888 51.9844C57.119 51.8565 57.2196 51.6979 57.2907 51.5085L58.1003 51.7358C58.0151 52.0104 57.8719 52.2519 57.6706 52.4602C57.4694 52.6662 57.2208 52.8272 56.9249 52.9432C56.629 53.0568 56.2963 53.1136 55.927 53.1136ZM62.2729 53V47.5455H63.0826V48.3693H63.1394C63.2388 48.0994 63.4187 47.8804 63.6792 47.7124C63.9396 47.5443 64.2331 47.4602 64.5598 47.4602C64.6214 47.4602 64.6983 47.4614 64.7907 47.4638C64.883 47.4661 64.9528 47.4697 65.0002 47.4744V48.3267C64.9718 48.3196 64.9067 48.3089 64.8049 48.2947C64.7054 48.2782 64.6001 48.2699 64.4888 48.2699C64.2237 48.2699 63.9869 48.3255 63.7786 48.4368C63.5726 48.5457 63.4093 48.6972 63.2885 48.8913C63.1702 49.0831 63.111 49.3021 63.111 49.5483V53H62.2729ZM68.1145 53.1136C67.589 53.1136 67.1356 52.9976 66.7544 52.7656C66.3757 52.5312 66.0833 52.2045 65.8773 51.7855C65.6737 51.3641 65.5719 50.8741 65.5719 50.3153C65.5719 49.7566 65.6737 49.2642 65.8773 48.8381C66.0833 48.4096 66.3697 48.0758 66.7367 47.8366C67.106 47.5952 67.5369 47.4744 68.0293 47.4744C68.3134 47.4744 68.5939 47.5218 68.8709 47.6165C69.1479 47.7112 69.4 47.8651 69.6273 48.0781C69.8546 48.2888 70.0357 48.5682 70.1706 48.9162C70.3056 49.2642 70.373 49.6927 70.373 50.2017V50.5568H66.1685V49.8324H69.5208C69.5208 49.5246 69.4592 49.25 69.3361 49.0085C69.2154 48.767 69.0426 48.5765 68.8176 48.4368C68.5951 48.2971 68.3323 48.2273 68.0293 48.2273C67.6955 48.2273 67.4067 48.3101 67.1628 48.4759C66.9213 48.6392 66.7355 48.8523 66.6053 49.1151C66.4751 49.3778 66.41 49.6596 66.41 49.9602V50.4432C66.41 50.8551 66.481 51.2043 66.623 51.4908C66.7675 51.7749 66.9675 51.9915 67.2232 52.1406C67.4789 52.2874 67.776 52.3608 68.1145 52.3608C68.3347 52.3608 68.5336 52.33 68.7111 52.2685C68.891 52.2045 69.0461 52.1098 69.1763 51.9844C69.3065 51.8565 69.4071 51.6979 69.4782 51.5085L70.2878 51.7358C70.2026 52.0104 70.0594 52.2519 69.8581 52.4602C69.6569 52.6662 69.4083 52.8272 69.1124 52.9432C68.8165 53.0568 68.4838 53.1136 68.1145 53.1136ZM75.9421 47.5455L73.9251 53H73.0728L71.0558 47.5455H71.9648L73.4705 51.892H73.5273L75.033 47.5455H75.9421ZM77.0483 53V47.5455H77.8864V53H77.0483ZM77.4744 46.6364C77.3111 46.6364 77.1702 46.5807 77.0518 46.4695C76.9358 46.3582 76.8778 46.2244 76.8778 46.0682C76.8778 45.9119 76.9358 45.7782 77.0518 45.6669C77.1702 45.5556 77.3111 45.5 77.4744 45.5C77.6378 45.5 77.7775 45.5556 77.8935 45.6669C78.0118 45.7782 78.071 45.9119 78.071 46.0682C78.071 46.2244 78.0118 46.3582 77.8935 46.4695C77.7775 46.5807 77.6378 46.6364 77.4744 46.6364ZM81.7083 53.1136C81.1827 53.1136 80.7293 52.9976 80.3482 52.7656C79.9694 52.5312 79.677 52.2045 79.4711 51.7855C79.2675 51.3641 79.1657 50.8741 79.1657 50.3153C79.1657 49.7566 79.2675 49.2642 79.4711 48.8381C79.677 48.4096 79.9635 48.0758 80.3304 47.8366C80.6998 47.5952 81.1306 47.4744 81.623 47.4744C81.9071 47.4744 82.1877 47.5218 82.4647 47.6165C82.7417 47.7112 82.9938 47.8651 83.2211 48.0781C83.4483 48.2888 83.6294 48.5682 83.7644 48.9162C83.8993 49.2642 83.9668 49.6927 83.9668 50.2017V50.5568H79.7623V49.8324H83.1145C83.1145 49.5246 83.053 49.25 82.9299 49.0085C82.8091 48.767 82.6363 48.5765 82.4114 48.4368C82.1889 48.2971 81.9261 48.2273 81.623 48.2273C81.2892 48.2273 81.0004 48.3101 80.7566 48.4759C80.5151 48.6392 80.3292 48.8523 80.199 49.1151C80.0688 49.3778 80.0037 49.6596 80.0037 49.9602V50.4432C80.0037 50.8551 80.0748 51.2043 80.2168 51.4908C80.3612 51.7749 80.5613 51.9915 80.8169 52.1406C81.0726 52.2874 81.3697 52.3608 81.7083 52.3608C81.9284 52.3608 82.1273 52.33 82.3049 52.2685C82.4848 52.2045 82.6399 52.1098 82.7701 51.9844C82.9003 51.8565 83.0009 51.6979 83.0719 51.5085L83.8816 51.7358C83.7963 52.0104 83.6531 52.2519 83.4519 52.4602C83.2507 52.6662 83.0021 52.8272 82.7061 52.9432C82.4102 53.0568 82.0776 53.1136 81.7083 53.1136ZM86.4775 53L84.8155 47.5455H85.6962L86.8752 51.7216H86.932L88.0968 47.5455H88.9917L90.1422 51.7074H90.199L91.378 47.5455H92.2587L90.5968 53H89.7729L88.5797 48.8097H88.4945L87.3013 53H86.4775ZM96.1792 53V47.5455H96.9888V48.3693H97.0456C97.1451 48.0994 97.325 47.8804 97.5854 47.7124C97.8458 47.5443 98.1394 47.4602 98.4661 47.4602C98.5276 47.4602 98.6046 47.4614 98.6969 47.4638C98.7892 47.4661 98.8591 47.4697 98.9064 47.4744V48.3267C98.878 48.3196 98.8129 48.3089 98.7111 48.2947C98.6117 48.2782 98.5063 48.2699 98.3951 48.2699C98.1299 48.2699 97.8932 48.3255 97.6848 48.4368C97.4789 48.5457 97.3155 48.6972 97.1948 48.8913C97.0764 49.0831 97.0172 49.3021 97.0172 49.5483V53H96.1792ZM101.505 53.1278C101.159 53.1278 100.846 53.0627 100.564 52.9325C100.282 52.8 100.058 52.6094 99.8928 52.3608C99.727 52.1098 99.6442 51.8068 99.6442 51.4517C99.6442 51.1392 99.7057 50.8859 99.8288 50.6918C99.9519 50.4953 100.116 50.3414 100.322 50.2301C100.528 50.1188 100.756 50.036 101.004 49.9815C101.255 49.9247 101.507 49.8797 101.761 49.8466C102.092 49.804 102.361 49.772 102.567 49.7507C102.775 49.727 102.927 49.688 103.021 49.6335C103.118 49.5791 103.167 49.4844 103.167 49.3494V49.321C103.167 48.9706 103.071 48.6984 102.879 48.5043C102.69 48.3101 102.402 48.2131 102.016 48.2131C101.616 48.2131 101.303 48.3007 101.075 48.4759C100.848 48.651 100.688 48.8381 100.596 49.0369L99.8004 48.7528C99.9425 48.4214 100.132 48.1634 100.369 47.9787C100.608 47.7917 100.868 47.6615 101.15 47.5881C101.434 47.5123 101.713 47.4744 101.988 47.4744C102.163 47.4744 102.364 47.4957 102.592 47.5384C102.821 47.5786 103.043 47.6626 103.256 47.7905C103.471 47.9183 103.65 48.1113 103.792 48.3693C103.934 48.6274 104.005 48.973 104.005 49.4062V53H103.167V52.2614H103.124C103.067 52.3797 102.973 52.5064 102.84 52.6413C102.708 52.7763 102.531 52.8911 102.311 52.9858C102.091 53.0805 101.822 53.1278 101.505 53.1278ZM101.633 52.375C101.964 52.375 102.244 52.3099 102.471 52.1797C102.701 52.0495 102.873 51.8814 102.989 51.6754C103.108 51.4695 103.167 51.2528 103.167 51.0256V50.2585C103.131 50.3011 103.053 50.3402 102.933 50.3757C102.814 50.4089 102.677 50.4384 102.521 50.4645C102.367 50.4882 102.216 50.5095 102.07 50.5284C101.925 50.545 101.808 50.5592 101.718 50.571C101.5 50.5994 101.297 50.6456 101.107 50.7095C100.92 50.7711 100.769 50.8646 100.653 50.9901C100.539 51.1132 100.482 51.2812 100.482 51.4943C100.482 51.7855 100.59 52.0057 100.805 52.1548C101.023 52.3016 101.299 52.375 101.633 52.375ZM107.907 47.5455V48.2557H105.08V47.5455H107.907ZM105.904 46.2386H106.742V51.4375C106.742 51.6742 106.776 51.8518 106.845 51.9702C106.916 52.0862 107.006 52.1643 107.115 52.2045C107.226 52.2424 107.343 52.2614 107.466 52.2614C107.559 52.2614 107.635 52.2566 107.694 52.2472C107.753 52.2353 107.8 52.2259 107.836 52.2188L108.006 52.9716C107.949 52.9929 107.87 53.0142 107.768 53.0355C107.666 53.0592 107.537 53.071 107.381 53.071C107.144 53.071 106.912 53.0201 106.685 52.9183C106.46 52.8165 106.273 52.6615 106.124 52.4531C105.977 52.2448 105.904 51.982 105.904 51.6648V46.2386ZM109.167 53V47.5455H110.006V53H109.167ZM109.594 46.6364C109.43 46.6364 109.289 46.5807 109.171 46.4695C109.055 46.3582 108.997 46.2244 108.997 46.0682C108.997 45.9119 109.055 45.7782 109.171 45.6669C109.289 45.5556 109.43 45.5 109.594 45.5C109.757 45.5 109.897 45.5556 110.013 45.6669C110.131 45.7782 110.19 45.9119 110.19 46.0682C110.19 46.2244 110.131 46.3582 110.013 46.4695C109.897 46.5807 109.757 46.6364 109.594 46.6364ZM112.379 49.7188V53H111.54V47.5455H112.35V48.3977H112.421C112.549 48.1207 112.743 47.8982 113.004 47.7301C113.264 47.5597 113.6 47.4744 114.012 47.4744C114.381 47.4744 114.705 47.5502 114.982 47.7017C115.259 47.8509 115.474 48.0781 115.628 48.3835C115.782 48.6866 115.859 49.0701 115.859 49.5341V53H115.021V49.5909C115.021 49.1624 114.909 48.8286 114.687 48.5895C114.464 48.348 114.159 48.2273 113.771 48.2273C113.503 48.2273 113.264 48.2853 113.053 48.4013C112.845 48.5173 112.68 48.6866 112.56 48.9091C112.439 49.1316 112.379 49.4015 112.379 49.7188ZM119.592 55.1591C119.187 55.1591 118.839 55.107 118.548 55.0028C118.257 54.901 118.014 54.7661 117.82 54.598C117.628 54.4323 117.475 54.2547 117.362 54.0653L118.029 53.5966C118.105 53.696 118.201 53.8097 118.317 53.9375C118.433 54.0677 118.592 54.1802 118.793 54.2749C118.996 54.3719 119.263 54.4205 119.592 54.4205C120.032 54.4205 120.396 54.3139 120.682 54.1009C120.968 53.8878 121.112 53.554 121.112 53.0994V51.9915H121.041C120.979 52.0909 120.892 52.214 120.778 52.3608C120.667 52.5052 120.506 52.6342 120.295 52.7479C120.087 52.8591 119.805 52.9148 119.45 52.9148C119.009 52.9148 118.614 52.8106 118.264 52.6023C117.916 52.3939 117.64 52.0909 117.436 51.6932C117.235 51.2955 117.134 50.8125 117.134 50.2443C117.134 49.6856 117.233 49.1991 117.429 48.7848C117.626 48.3681 117.899 48.0462 118.249 47.8189C118.6 47.5893 119.005 47.4744 119.464 47.4744C119.819 47.4744 120.101 47.5336 120.309 47.652C120.52 47.768 120.681 47.9006 120.792 48.0497C120.906 48.1965 120.993 48.3172 121.055 48.4119H121.14V47.5455H121.95V53.1562C121.95 53.625 121.843 54.0062 121.63 54.2997C121.419 54.5956 121.135 54.8123 120.778 54.9496C120.423 55.0893 120.027 55.1591 119.592 55.1591ZM119.563 52.1619C119.9 52.1619 120.184 52.085 120.416 51.9311C120.648 51.7772 120.824 51.5559 120.945 51.267C121.066 50.9782 121.126 50.6326 121.126 50.2301C121.126 49.8371 121.067 49.4903 120.948 49.1896C120.83 48.889 120.655 48.6534 120.423 48.483C120.191 48.3125 119.904 48.2273 119.563 48.2273C119.208 48.2273 118.912 48.3172 118.676 48.4972C118.441 48.6771 118.265 48.9186 118.146 49.2216C118.03 49.5246 117.972 49.8608 117.972 50.2301C117.972 50.6089 118.032 50.9439 118.15 51.2351C118.271 51.5239 118.448 51.7512 118.683 51.9169C118.919 52.0803 119.213 52.1619 119.563 52.1619ZM124.095 53.0568C123.919 53.0568 123.769 52.9941 123.644 52.8686C123.518 52.7431 123.455 52.5928 123.455 52.4176C123.455 52.2424 123.518 52.0921 123.644 51.9666C123.769 51.8411 123.919 51.7784 124.095 51.7784C124.27 51.7784 124.42 51.8411 124.546 51.9666C124.671 52.0921 124.734 52.2424 124.734 52.4176C124.734 52.5336 124.704 52.6402 124.645 52.7372C124.588 52.8343 124.511 52.9124 124.414 52.9716C124.32 53.0284 124.213 53.0568 124.095 53.0568Z" fill="black"/>
<path d="M14.076 20V9.09091H18.1669C19.005 9.09091 19.7081 9.23651 20.2763 9.5277C20.848 9.81889 21.2795 10.2273 21.5707 10.7528C21.8654 11.2749 22.0128 11.8839 22.0128 12.5799C22.0128 13.2795 21.8636 13.8867 21.5653 14.4016C21.2706 14.913 20.8356 15.3089 20.2603 15.5895C19.685 15.8665 18.9783 16.005 18.1403 16.005H15.2266V14.3643H17.8739C18.364 14.3643 18.7653 14.2969 19.0778 14.1619C19.3903 14.0234 19.6211 13.8228 19.7702 13.56C19.9229 13.2937 19.9993 12.967 19.9993 12.5799C19.9993 12.1928 19.9229 11.8626 19.7702 11.5891C19.6175 11.3121 19.3849 11.1026 19.0724 10.9606C18.7599 10.815 18.3569 10.7422 17.8633 10.7422H16.0522V20H14.076ZM19.7116 15.0568L22.4123 20H20.207L17.5543 15.0568H19.7116ZM27.1116 20.1598C26.2913 20.1598 25.5828 19.9893 24.9862 19.6484C24.3932 19.304 23.9369 18.8175 23.6173 18.1889C23.2977 17.5568 23.1379 16.8129 23.1379 15.957C23.1379 15.1154 23.2977 14.3768 23.6173 13.7411C23.9404 13.1019 24.3914 12.6048 24.9703 12.2496C25.5491 11.891 26.2291 11.7116 27.0104 11.7116C27.5147 11.7116 27.9905 11.7933 28.4379 11.9567C28.8889 12.1165 29.2867 12.3651 29.6311 12.7024C29.9791 13.0398 30.2526 13.4695 30.4514 13.9915C30.6503 14.5099 30.7497 15.1278 30.7497 15.8452V16.4364H24.0434V15.1367H28.9014C28.8978 14.7674 28.8179 14.4389 28.6617 14.1513C28.5054 13.8601 28.287 13.631 28.0065 13.4641C27.7295 13.2972 27.4063 13.2138 27.037 13.2138C26.6428 13.2138 26.2966 13.3097 25.9983 13.5014C25.7 13.6896 25.4674 13.9382 25.3005 14.2472C25.1372 14.5526 25.0537 14.8881 25.0502 15.2539V16.3885C25.0502 16.8643 25.1372 17.2727 25.3112 17.6136C25.4852 17.951 25.7284 18.2102 26.0409 18.3913C26.3534 18.5689 26.7192 18.6577 27.1382 18.6577C27.4188 18.6577 27.6727 18.6186 27.9 18.5405C28.1272 18.4588 28.3243 18.3398 28.4912 18.1836C28.6581 18.0273 28.7842 17.8338 28.8694 17.603L30.6698 17.8054C30.5562 18.2812 30.3396 18.6967 30.02 19.0518C29.7039 19.4034 29.2991 19.6768 28.8055 19.8722C28.3119 20.0639 27.7473 20.1598 27.1116 20.1598ZM39.3149 11.8182L36.4012 20H34.2705L31.3568 11.8182H33.4129L35.2932 17.896H35.3785L37.2641 11.8182H39.3149ZM40.5092 20V11.8182H42.4375V20H40.5092ZM41.4787 10.657C41.1733 10.657 40.9105 10.5558 40.6904 10.3533C40.4702 10.1474 40.3601 9.90057 40.3601 9.61293C40.3601 9.32173 40.4702 9.07493 40.6904 8.87251C40.9105 8.66655 41.1733 8.56357 41.4787 8.56357C41.7877 8.56357 42.0504 8.66655 42.2671 8.87251C42.4872 9.07493 42.5973 9.32173 42.5973 9.61293C42.5973 9.90057 42.4872 10.1474 42.2671 10.3533C42.0504 10.5558 41.7877 10.657 41.4787 10.657ZM47.9025 20.1598C47.0822 20.1598 46.3738 19.9893 45.7772 19.6484C45.1841 19.304 44.7278 18.8175 44.4082 18.1889C44.0886 17.5568 43.9288 16.8129 43.9288 15.957C43.9288 15.1154 44.0886 14.3768 44.4082 13.7411C44.7314 13.1019 45.1824 12.6048 45.7612 12.2496C46.34 11.891 47.0201 11.7116 47.8013 11.7116C48.3056 11.7116 48.7814 11.7933 49.2289 11.9567C49.6799 12.1165 50.0776 12.3651 50.4221 12.7024C50.7701 13.0398 51.0435 13.4695 51.2424 13.9915C51.4412 14.5099 51.5407 15.1278 51.5407 15.8452V16.4364H44.8344V15.1367H49.6923C49.6888 14.7674 49.6089 14.4389 49.4526 14.1513C49.2964 13.8601 49.078 13.631 48.7974 13.4641C48.5204 13.2972 48.1973 13.2138 47.828 13.2138C47.4338 13.2138 47.0876 13.3097 46.7893 13.5014C46.491 13.6896 46.2584 13.9382 46.0915 14.2472C45.9281 14.5526 45.8447 14.8881 45.8411 15.2539V16.3885C45.8411 16.8643 45.9281 17.2727 46.1021 17.6136C46.2761 17.951 46.5194 18.2102 46.8319 18.3913C47.1444 18.5689 47.5101 18.6577 47.9292 18.6577C48.2097 18.6577 48.4636 18.6186 48.6909 18.5405C48.9182 18.4588 49.1152 18.3398 49.2822 18.1836C49.4491 18.0273 49.5751 17.8338 49.6603 17.603L51.4608 17.8054C51.3471 18.2812 51.1305 18.6967 50.8109 19.0518C50.4949 19.4034 50.09 19.6768 49.5964 19.8722C49.1028 20.0639 48.5382 20.1598 47.9025 20.1598ZM54.6766 20L52.3648 11.8182H54.3304L55.7686 17.571H55.8431L57.3133 11.8182H59.2576L60.7277 17.5391H60.8076L62.2245 11.8182H64.1954L61.8783 20H59.8701L58.336 14.4709H58.2242L56.6901 20H54.6766ZM69.0677 20V9.09091H73.1586C73.9967 9.09091 74.6998 9.23651 75.268 9.5277C75.8397 9.81889 76.2712 10.2273 76.5623 10.7528C76.8571 11.2749 77.0045 11.8839 77.0045 12.5799C77.0045 13.2795 76.8553 13.8867 76.557 14.4016C76.2623 14.913 75.8273 15.3089 75.252 15.5895C74.6767 15.8665 73.97 16.005 73.1319 16.005H70.2182V14.3643H72.8656C73.3557 14.3643 73.7569 14.2969 74.0694 14.1619C74.382 14.0234 74.6128 13.8228 74.7619 13.56C74.9146 13.2937 74.991 12.967 74.991 12.5799C74.991 12.1928 74.9146 11.8626 74.7619 11.5891C74.6092 11.3121 74.3766 11.1026 74.0641 10.9606C73.7516 10.815 73.3486 10.7422 72.855 10.7422H71.0439V20H69.0677ZM74.7033 15.0568L77.404 20H75.1987L72.546 15.0568H74.7033ZM80.9527 20.1651C80.4342 20.1651 79.9673 20.0728 79.5518 19.8881C79.1399 19.6999 78.8131 19.4229 78.5717 19.0572C78.3337 18.6914 78.2148 18.2404 78.2148 17.7042C78.2148 17.2425 78.3 16.8608 78.4705 16.5589C78.6409 16.2571 78.8735 16.0156 79.1683 15.8345C79.463 15.6534 79.795 15.5167 80.1644 15.4244C80.5372 15.3285 80.9225 15.2592 81.3202 15.2166C81.7997 15.1669 82.1885 15.1225 82.4868 15.0835C82.7851 15.0408 83.0017 14.9769 83.1367 14.8917C83.2752 14.8029 83.3444 14.6662 83.3444 14.4815V14.4496C83.3444 14.0483 83.2254 13.7376 82.9875 13.5174C82.7496 13.2972 82.4069 13.1871 81.9595 13.1871C81.4872 13.1871 81.1125 13.2901 80.8355 13.4961C80.5621 13.7021 80.3774 13.9453 80.2815 14.2259L78.4811 13.9702C78.6232 13.473 78.8575 13.0575 79.1842 12.7237C79.5109 12.3864 79.9104 12.1342 80.3827 11.9673C80.8551 11.7969 81.3771 11.7116 81.9488 11.7116C82.343 11.7116 82.7354 11.7578 83.126 11.8501C83.5166 11.9425 83.8735 12.0952 84.1967 12.3082C84.5198 12.5178 84.7791 12.8036 84.9744 13.1658C85.1732 13.5281 85.2727 13.9808 85.2727 14.5241V20H83.419V18.8761H83.3551C83.2379 19.1033 83.0727 19.3164 82.8597 19.5153C82.6502 19.7106 82.3856 19.8686 82.066 19.9893C81.7499 20.1065 81.3788 20.1651 80.9527 20.1651ZM81.4534 18.7482C81.8405 18.7482 82.1761 18.6719 82.4602 18.5192C82.7443 18.3629 82.9627 18.157 83.1153 17.9013C83.2716 17.6456 83.3497 17.3668 83.3497 17.065V16.1009C83.2894 16.1506 83.1864 16.1967 83.0408 16.2393C82.8987 16.282 82.7389 16.3192 82.5614 16.3512C82.3838 16.3832 82.208 16.4116 82.034 16.4364C81.86 16.4613 81.7091 16.4826 81.5813 16.5004C81.2936 16.5394 81.0362 16.6033 80.8089 16.6921C80.5816 16.7809 80.4023 16.9052 80.2709 17.065C80.1395 17.2212 80.0738 17.4237 80.0738 17.6722C80.0738 18.0273 80.2034 18.2955 80.4627 18.4766C80.7219 18.6577 81.0521 18.7482 81.4534 18.7482ZM91.1572 11.8182V13.3097H86.4537V11.8182H91.1572ZM87.6149 9.85795H89.5432V17.5391C89.5432 17.7983 89.5822 17.9972 89.6604 18.1357C89.742 18.2706 89.8486 18.3629 89.98 18.4126C90.1114 18.4624 90.257 18.4872 90.4168 18.4872C90.5375 18.4872 90.6476 18.4783 90.747 18.4606C90.85 18.4428 90.9281 18.4268 90.9814 18.4126L91.3063 19.9201C91.2033 19.9556 91.056 19.9947 90.8642 20.0373C90.676 20.0799 90.4452 20.1048 90.1717 20.1119C89.6888 20.1261 89.2538 20.0533 88.8667 19.8935C88.4796 19.7301 88.1724 19.478 87.9452 19.1371C87.7214 18.7962 87.6114 18.37 87.6149 17.8587V9.85795ZM92.6298 20V11.8182H94.5581V20H92.6298ZM93.5993 10.657C93.2939 10.657 93.0311 10.5558 92.8109 10.3533C92.5908 10.1474 92.4807 9.90057 92.4807 9.61293C92.4807 9.32173 92.5908 9.07493 92.8109 8.87251C93.0311 8.66655 93.2939 8.56357 93.5993 8.56357C93.9082 8.56357 94.171 8.66655 94.3876 8.87251C94.6078 9.07493 94.7179 9.32173 94.7179 9.61293C94.7179 9.90057 94.6078 10.1474 94.3876 10.3533C94.171 10.5558 93.9082 10.657 93.5993 10.657ZM98.3292 15.206V20H96.401V11.8182H98.244V13.2085H98.3399C98.5281 12.7504 98.8282 12.3864 99.2401 12.1165C99.6556 11.8466 100.169 11.7116 100.78 11.7116C101.344 11.7116 101.836 11.8324 102.255 12.0739C102.678 12.3153 103.004 12.6651 103.235 13.1232C103.469 13.5813 103.585 14.1371 103.581 14.7905V20H101.653V15.0888C101.653 14.5419 101.511 14.114 101.227 13.805C100.946 13.4961 100.558 13.3416 100.06 13.3416C99.723 13.3416 99.423 13.4162 99.1602 13.5653C98.901 13.7109 98.6968 13.9222 98.5476 14.1992C98.402 14.4762 98.3292 14.8118 98.3292 15.206ZM108.96 23.2386C108.267 23.2386 107.673 23.1445 107.175 22.9563C106.678 22.7717 106.279 22.5231 105.977 22.2106C105.675 21.8981 105.466 21.5518 105.348 21.1719L107.085 20.7511C107.163 20.9109 107.277 21.0689 107.426 21.2251C107.575 21.3849 107.776 21.5163 108.028 21.6193C108.283 21.7259 108.605 21.7791 108.992 21.7791C109.539 21.7791 109.991 21.646 110.35 21.3796C110.709 21.1168 110.888 20.6836 110.888 20.0799V18.5298H110.792C110.693 18.7287 110.547 18.9329 110.355 19.1424C110.167 19.3519 109.917 19.5277 109.604 19.6697C109.295 19.8118 108.907 19.8828 108.438 19.8828C107.809 19.8828 107.239 19.7354 106.728 19.4407C106.22 19.1424 105.815 18.6985 105.513 18.109C105.215 17.516 105.066 16.7738 105.066 15.8825C105.066 14.984 105.215 14.2259 105.513 13.608C105.815 12.9865 106.222 12.516 106.733 12.1964C107.245 11.8732 107.815 11.7116 108.443 11.7116C108.923 11.7116 109.317 11.7933 109.626 11.9567C109.938 12.1165 110.187 12.31 110.371 12.5373C110.556 12.761 110.696 12.9723 110.792 13.1712H110.899V11.8182H112.8V20.1332C112.8 20.8327 112.633 21.4116 112.3 21.8697C111.966 22.3278 111.51 22.6705 110.931 22.8977C110.352 23.125 109.695 23.2386 108.96 23.2386ZM108.976 18.37C109.384 18.37 109.732 18.2706 110.02 18.0717C110.307 17.8729 110.526 17.587 110.675 17.2141C110.824 16.8413 110.899 16.3938 110.899 15.8718C110.899 15.3569 110.824 14.9059 110.675 14.5188C110.529 14.1317 110.313 13.8317 110.025 13.6186C109.741 13.402 109.391 13.2937 108.976 13.2937C108.546 13.2937 108.187 13.4055 107.9 13.6293C107.612 13.853 107.396 14.1602 107.25 14.5508C107.104 14.9379 107.032 15.3782 107.032 15.8718C107.032 16.3725 107.104 16.8111 107.25 17.1875C107.399 17.5604 107.617 17.8516 107.905 18.0611C108.196 18.267 108.553 18.37 108.976 18.37Z" fill="#202020"/>
<path d="M307 56C315.284 56 322 49.2843 322 41C322 32.7157 315.284 26 307 26C298.716 26 292 32.7157 292 41C292 49.2843 298.716 56 307 56Z" fill="#169D00"/>
<path d="M308.671 35.2949L307.492 36.4987L311.247 40.146H300.089V41.8312H311.247L307.492 45.4785L308.671 46.6822L314.546 40.9886L308.671 35.2949Z" fill="white"/>
</svg>
